# Blender v3.6.1 OBJ File: 'SingleBlock.blend'
# www.blender.org
mtllib SinglePiece-4.mtl
o Cube
v 1.000000 0.909091 -0.909091
v 1.000000 0.090909 -0.909091
v 0.909091 0.909091 0.000000
v 0.909091 0.090909 0.000000
v 0.000000 0.909091 -0.909091
v 0.000000 0.090909 -0.909091
v 0.090909 0.909091 0.000000
v 0.090909 0.090909 0.000000
v 0.000000 0.090909 -0.090909
v 0.000000 0.909091 -0.090909
v 1.000000 0.909091 -0.090909
v 1.000000 0.090909 -0.090909
v 0.090909 0.000000 -0.909091
v 0.090909 0.000000 -0.090909
v 0.909091 1.000000 -0.909091
v 0.909091 0.000000 -0.909091
v 0.090909 1.000000 -0.090909
v 0.909091 1.000000 -0.090909
v 0.909091 0.000000 -0.090909
v 0.090909 1.000000 -0.909091
v 0.090909 0.090909 -1.000000
v 0.045455 0.045455 -0.045455
v 0.909091 0.090909 -1.000000
v 0.954545 0.954545 -0.045455
v 0.045455 0.954545 -0.045455
v 0.909091 0.909091 -1.000000
v 0.954545 0.045455 -0.045455
v 0.090909 0.909091 -1.000000
v 0.954545 0.045455 -0.954545
v 0.045455 0.045455 -0.954545
v 0.954545 0.954545 -0.954545
v 0.045455 0.954545 -0.954545
vt 0.637500 0.512500
vt 0.862500 0.512500
vt 0.862500 0.737500
vt 0.637500 0.737500
vt 0.387500 0.762500
vt 0.612500 0.762500
vt 0.612500 0.987500
vt 0.387500 0.987500
vt 0.387500 0.012500
vt 0.612500 0.012500
vt 0.612500 0.237500
vt 0.387500 0.237500
vt 0.137500 0.512500
vt 0.362500 0.512500
vt 0.362500 0.737500
vt 0.137500 0.737500
vt 0.387500 0.512500
vt 0.612500 0.512500
vt 0.612500 0.737500
vt 0.387500 0.737500
vt 0.387500 0.262500
vt 0.612500 0.262500
vt 0.612500 0.487500
vt 0.387500 0.487500
vt 0.625000 1.000000
vt 0.375000 1.000000
vt 0.375000 0.750000
vt 0.625000 0.750000
vt 0.375000 0.250000
vt 0.375000 0.000000
vt 0.375000 0.500000
vt 0.625000 0.500000
vt 0.625000 0.000000
vt 0.625000 0.250000
vt 0.125000 0.750000
vt 0.125000 0.500000
vt 0.875000 0.750000
vt 0.875000 0.500000
vn 0.0000 1.0000 0.0000
vn 0.0000 0.0000 1.0000
vn -1.0000 0.0000 0.0000
vn 0.0000 -1.0000 0.0000
vn 1.0000 0.0000 0.0000
vn 0.0000 0.0000 -1.0000
vn -0.7071 0.0000 0.7071
vn 0.7071 0.0000 0.7071
vn 0.0000 0.7071 0.7071
vn 0.0000 -0.7071 0.7071
vn -0.7071 -0.7071 0.0000
vn 0.7071 0.0000 -0.7071
vn -0.7071 0.0000 -0.7071
vn 0.7071 0.7071 0.0000
vn -0.7071 0.7071 0.0000
vn 0.7071 -0.7071 0.0000
vn 0.0000 -0.7071 -0.7071
vn 0.0000 0.7071 -0.7071
usemtl NAVY
s off
f 15/1/1 20/2/1 17/3/1 18/4/1
f 4/5/2 3/6/2 7/7/2 8/8/2
f 9/9/3 10/10/3 5/11/3 6/12/3
f 13/13/4 16/14/4 19/15/4 14/16/4
f 2/17/5 1/18/5 11/19/5 12/20/5
f 21/21/6 28/22/6 26/23/6 23/24/6
f 8/8/7 7/7/7 25/25/7 22/26/7
f 3/6/8 4/5/8 27/27/8 24/28/8
f 7/7/9 3/6/9 24/28/9 25/25/9
f 4/5/10 8/8/10 22/26/10 27/27/10
f 9/9/11 6/12/11 30/29/11 22/30/11
f 1/18/12 2/17/12 29/31/12 31/32/12
f 10/10/7 9/9/7 22/30/7 25/33/7
f 12/20/8 11/19/8 24/28/8 27/27/8
f 6/12/13 5/11/13 32/34/13 30/29/13
f 11/19/14 1/18/14 31/32/14 24/28/14
f 5/11/15 10/10/15 25/33/15 32/34/15
f 2/17/16 12/20/16 27/27/16 29/31/16
f 13/13/11 14/16/11 22/35/11 30/36/11
f 16/14/17 13/13/17 30/36/17 29/31/17
f 18/4/9 17/3/9 25/37/9 24/28/9
f 15/1/14 18/4/14 24/28/14 31/32/14
f 14/16/10 19/15/10 27/27/10 22/35/10
f 17/3/15 20/2/15 32/38/15 25/37/15
f 20/2/18 15/1/18 31/32/18 32/38/18
f 19/15/16 16/14/16 29/31/16 27/27/16
f 21/21/17 23/24/17 29/31/17 30/29/17
f 23/24/12 26/23/12 31/32/12 29/31/12
f 28/22/13 21/21/13 30/29/13 32/34/13
f 26/23/18 28/22/18 32/34/18 31/32/18
